<svg width="15" height="8" viewBox="0 0 15 8" fill="none" xmlns="http://www.w3.org/2000/svg">
<path d="M0 2C0 1.46957 0.197544 0.960859 0.549175 0.585786C0.900805 0.210714 1.37772 0 1.875 0H11.25C11.7473 0 12.2242 0.210714 12.5758 0.585786C12.9275 0.960859 13.125 1.46957 13.125 2V6C13.125 6.53043 12.9275 7.03914 12.5758 7.41421C12.2242 7.78929 11.7473 8 11.25 8H1.875C1.37772 8 0.900805 7.78929 0.549175 7.41421C0.197544 7.03914 0 6.53043 0 6V2ZM1.875 1C1.62636 1 1.3879 1.10536 1.21209 1.29289C1.03627 1.48043 0.9375 1.73478 0.9375 2V6C0.9375 6.26522 1.03627 6.51957 1.21209 6.70711C1.3879 6.89464 1.62636 7 1.875 7H11.25C11.4986 7 11.7371 6.89464 11.9129 6.70711C12.0887 6.51957 12.1875 6.26522 12.1875 6V2C12.1875 1.73478 12.0887 1.48043 11.9129 1.29289C11.7371 1.10536 11.4986 1 11.25 1H1.875ZM15 4C15 4.39782 14.8518 4.77936 14.5881 5.06066C14.3244 5.34196 13.9667 5.5 13.5938 5.5V2.5C13.9667 2.5 14.3244 2.65804 14.5881 2.93934C14.8518 3.22064 15 3.60218 15 4Z" fill="black"/>
</svg>
