<svg width="16" height="20" viewBox="0 0 16 20" fill="none" xmlns="http://www.w3.org/2000/svg">
<path d="M7.45079 12.2175L1.03432 11.4503C0.654404 11.4089 0.410841 11.2019 0.30363 10.8294C0.196419 10.4568 0.283843 10.1419 0.565901 9.88469L11.1247 0.149684C11.1729 0.0994198 11.2287 0.0620913 11.292 0.0376984C11.3554 0.0125662 11.4467 0 11.5662 0C11.7604 0 11.9137 0.0861146 12.026 0.258344C12.1382 0.430573 12.1393 0.611672 12.0292 0.801641L8.01095 7.80353L14.4684 8.5708C14.8483 8.61219 15.0955 8.81546 15.2099 9.18062C15.3243 9.54577 15.2401 9.85734 14.9574 10.1153L4.39851 19.8725C4.3503 19.922 4.29454 19.9557 4.23122 19.9734C4.1679 19.9911 4.07652 20 3.95708 20C3.7628 20 3.61638 19.9143 3.5178 19.7428C3.41922 19.5713 3.41814 19.3972 3.51456 19.2205L7.45079 12.2175ZM6.15562 16.6715L13.9039 9.60971L6.27111 8.73157L9.40325 3.29194L1.6193 10.3759L9.22516 11.3117L6.15562 16.6715Z" fill="black"/>
</svg>
