<svg width="15" height="15" viewBox="0 0 15 15" fill="none" xmlns="http://www.w3.org/2000/svg">
<path d="M5.46875 5H9.53125C9.65557 5 9.7748 5.04939 9.86271 5.13729C9.95061 5.2252 10 5.34443 10 5.46875V9.53125C10 9.65557 9.95061 9.7748 9.86271 9.86271C9.7748 9.95061 9.65557 10 9.53125 10H5.46875C5.34443 10 5.2252 9.95061 5.13729 9.86271C5.04939 9.7748 5 9.65557 5 9.53125V5.46875C5 5.34443 5.04939 5.2252 5.13729 5.13729C5.2252 5.04939 5.34443 5 5.46875 5ZM5.9375 9.0625H9.0625V5.9375H5.9375V9.0625Z" fill="black"/>
<path d="M9.53125 0.625C9.65557 0.625 9.7748 0.674386 9.86271 0.762294C9.95061 0.850201 10 0.96943 10 1.09375V2.5H11.4062C12.01 2.5 12.5 2.99 12.5 3.59375V5H13.9062C14.0306 5 14.1498 5.04939 14.2377 5.13729C14.3256 5.2252 14.375 5.34443 14.375 5.46875C14.375 5.59307 14.3256 5.7123 14.2377 5.80021C14.1498 5.88811 14.0306 5.9375 13.9062 5.9375H12.5V9.0625H13.9062C14.0306 9.0625 14.1498 9.11189 14.2377 9.19979C14.3256 9.2877 14.375 9.40693 14.375 9.53125C14.375 9.65557 14.3256 9.7748 14.2377 9.86271C14.1498 9.95061 14.0306 10 13.9062 10H12.5V11.4062C12.5 11.6963 12.3848 11.9745 12.1796 12.1796C11.9745 12.3848 11.6963 12.5 11.4062 12.5H10V13.9062C10 14.0306 9.95061 14.1498 9.86271 14.2377C9.7748 14.3256 9.65557 14.375 9.53125 14.375C9.40693 14.375 9.2877 14.3256 9.19979 14.2377C9.11189 14.1498 9.0625 14.0306 9.0625 13.9062V12.5H5.9375V13.9062C5.9375 14.0306 5.88811 14.1498 5.80021 14.2377C5.7123 14.3256 5.59307 14.375 5.46875 14.375C5.34443 14.375 5.2252 14.3256 5.13729 14.2377C5.04939 14.1498 5 14.0306 5 13.9062V12.5H3.59375C3.30367 12.5 3.02547 12.3848 2.82035 12.1796C2.61523 11.9745 2.5 11.6963 2.5 11.4062V10H1.09375C0.96943 10 0.850201 9.95061 0.762294 9.86271C0.674386 9.7748 0.625 9.65557 0.625 9.53125C0.625 9.40693 0.674386 9.2877 0.762294 9.19979C0.850201 9.11189 0.96943 9.0625 1.09375 9.0625H2.5V5.9375H1.09375C0.96943 5.9375 0.850201 5.88811 0.762294 5.80021C0.674386 5.7123 0.625 5.59307 0.625 5.46875C0.625 5.34443 0.674386 5.2252 0.762294 5.13729C0.850201 5.04939 0.96943 5 1.09375 5H2.5V3.59375C2.5 2.99 2.99 2.5 3.59375 2.5H5V1.09375C5 0.96943 5.04939 0.850201 5.13729 0.762294C5.2252 0.674386 5.34443 0.625 5.46875 0.625C5.59307 0.625 5.7123 0.674386 5.80021 0.762294C5.88811 0.850201 5.9375 0.96943 5.9375 1.09375V2.5H9.0625V1.09375C9.0625 0.96943 9.11189 0.850201 9.19979 0.762294C9.2877 0.674386 9.40693 0.625 9.53125 0.625ZM11.4062 11.5625C11.4477 11.5625 11.4874 11.546 11.5167 11.5167C11.546 11.4874 11.5625 11.4477 11.5625 11.4062V3.59375C11.5625 3.55231 11.546 3.51257 11.5167 3.48326C11.4874 3.45396 11.4477 3.4375 11.4062 3.4375H3.59375C3.55231 3.4375 3.51257 3.45396 3.48326 3.48326C3.45396 3.51257 3.4375 3.55231 3.4375 3.59375V11.4062C3.4375 11.4925 3.5075 11.5625 3.59375 11.5625H11.4062Z" fill="black"/>
</svg>
