<svg width="15" height="10" viewBox="0 0 15 10" fill="none" xmlns="http://www.w3.org/2000/svg">
<path d="M13.5938 0.398438H1.40625C1.18869 0.398438 0.98004 0.484863 0.826201 0.638702C0.672363 0.79254 0.585938 1.00119 0.585938 1.21875V8.71875C0.585938 8.81199 0.622977 8.90141 0.688908 8.96734C0.754839 9.03327 0.84426 9.07031 0.9375 9.07031C1.03074 9.07031 1.12016 9.03327 1.18609 8.96734C1.25202 8.90141 1.28906 8.81199 1.28906 8.71875V7.66406H2.46094V8.71875C2.46094 8.81199 2.49798 8.90141 2.56391 8.96734C2.62984 9.03327 2.71926 9.07031 2.8125 9.07031C2.90574 9.07031 2.99516 9.03327 3.06109 8.96734C3.12702 8.90141 3.16406 8.81199 3.16406 8.71875V7.66406H4.33594V8.71875C4.33594 8.81199 4.37298 8.90141 4.43891 8.96734C4.50484 9.03327 4.59426 9.07031 4.6875 9.07031C4.78074 9.07031 4.87016 9.03327 4.93609 8.96734C5.00202 8.90141 5.03906 8.81199 5.03906 8.71875V7.66406H6.21094V8.71875C6.21094 8.81199 6.24798 8.90141 6.31391 8.96734C6.37984 9.03327 6.46926 9.07031 6.5625 9.07031C6.65574 9.07031 6.74516 9.03327 6.81109 8.96734C6.87702 8.90141 6.91406 8.81199 6.91406 8.71875V7.66406H8.08594V8.71875C8.08594 8.81199 8.12298 8.90141 8.18891 8.96734C8.25484 9.03327 8.34426 9.07031 8.4375 9.07031C8.53074 9.07031 8.62016 9.03327 8.68609 8.96734C8.75202 8.90141 8.78906 8.81199 8.78906 8.71875V7.66406H9.96094V8.71875C9.96094 8.81199 9.99798 8.90141 10.0639 8.96734C10.1298 9.03327 10.2193 9.07031 10.3125 9.07031C10.4057 9.07031 10.4952 9.03327 10.5611 8.96734C10.627 8.90141 10.6641 8.81199 10.6641 8.71875V7.66406H11.8359V8.71875C11.8359 8.81199 11.873 8.90141 11.9389 8.96734C12.0048 9.03327 12.0943 9.07031 12.1875 9.07031C12.2807 9.07031 12.3702 9.03327 12.4361 8.96734C12.502 8.90141 12.5391 8.81199 12.5391 8.71875V7.66406H13.7109V8.71875C13.7109 8.81199 13.748 8.90141 13.8139 8.96734C13.8798 9.03327 13.9693 9.07031 14.0625 9.07031C14.1557 9.07031 14.2452 9.03327 14.3111 8.96734C14.377 8.90141 14.4141 8.81199 14.4141 8.71875V1.21875C14.4141 1.00119 14.3276 0.79254 14.1738 0.638702C14.02 0.484863 13.8113 0.398438 13.5938 0.398438ZM1.28906 1.21875C1.28906 1.18767 1.30141 1.15786 1.32339 1.13589C1.34536 1.11391 1.37517 1.10156 1.40625 1.10156H13.5938C13.6248 1.10156 13.6546 1.11391 13.6766 1.13589C13.6986 1.15786 13.7109 1.18767 13.7109 1.21875V6.96094H1.28906V1.21875ZM6.5625 5.78906C6.65574 5.78906 6.74516 5.75202 6.81109 5.68609C6.87702 5.62016 6.91406 5.53074 6.91406 5.4375V2.625C6.91406 2.53176 6.87702 2.44234 6.81109 2.37641C6.74516 2.31048 6.65574 2.27344 6.5625 2.27344H2.8125C2.71926 2.27344 2.62984 2.31048 2.56391 2.37641C2.49798 2.44234 2.46094 2.53176 2.46094 2.625V5.4375C2.46094 5.53074 2.49798 5.62016 2.56391 5.68609C2.62984 5.75202 2.71926 5.78906 2.8125 5.78906H6.5625ZM3.16406 2.97656H6.21094V5.08594H3.16406V2.97656ZM8.4375 5.78906H12.1875C12.2807 5.78906 12.3702 5.75202 12.4361 5.68609C12.502 5.62016 12.5391 5.53074 12.5391 5.4375V2.625C12.5391 2.53176 12.502 2.44234 12.4361 2.37641C12.3702 2.31048 12.2807 2.27344 12.1875 2.27344H8.4375C8.34426 2.27344 8.25484 2.31048 8.18891 2.37641C8.12298 2.44234 8.08594 2.53176 8.08594 2.625V5.4375C8.08594 5.53074 8.12298 5.62016 8.18891 5.68609C8.25484 5.75202 8.34426 5.78906 8.4375 5.78906ZM8.78906 2.97656H11.8359V5.08594H8.78906V2.97656Z" fill="black"/>
</svg>
