<svg width="21" height="15" viewBox="0 0 21 15" fill="none" xmlns="http://www.w3.org/2000/svg">
<path d="M15.7083 5.41668L19.875 9.58335M15.7083 9.58335L19.875 5.41668M11.5417 7.50001C11.5417 5.53751 11.3719 3.6146 11.0469 1.7448C10.9187 1.01147 10.0708 0.683346 9.46354 1.1146L6.875 2.95001C6.52269 3.19959 6.10154 3.33354 5.66979 3.33335H3.20833C2.6558 3.33335 2.12589 3.55284 1.73519 3.94354C1.34449 4.33424 1.125 4.86414 1.125 5.41668V9.58335C1.125 10.1359 1.34449 10.6658 1.73519 11.0565C2.12589 11.4472 2.6558 11.6667 3.20833 11.6667H5.66979C6.10154 11.6665 6.52269 11.8004 6.875 12.05L9.46354 13.8854C10.0708 14.3167 10.9187 13.9896 11.0469 13.2552C11.378 11.3548 11.5436 9.42912 11.5417 7.50001Z" stroke="black" stroke-width="1.33333" stroke-linecap="round" stroke-linejoin="round"/>
</svg>
