<svg width="21" height="21" viewBox="0 0 21 21" fill="none" xmlns="http://www.w3.org/2000/svg">
<path d="M3.20831 10.5C3.20831 10.2237 3.09857 9.95876 2.90322 9.76341C2.70787 9.56806 2.44291 9.45831 2.16665 9.45831H1.12498C0.848713 9.45831 0.58376 9.56806 0.38841 9.76341C0.19306 9.95876 0.083313 10.2237 0.083313 10.5C0.083313 10.7762 0.19306 11.0412 0.38841 11.2366C0.58376 11.4319 0.848713 11.5416 1.12498 11.5416H2.16665C2.44291 11.5416 2.70787 11.4319 2.90322 11.2366C3.09857 11.0412 3.20831 10.7762 3.20831 10.5ZM3.87498 15.7083L3.1354 16.4479C2.94139 16.6431 2.83249 16.9071 2.83249 17.1823C2.83249 17.4575 2.94139 17.7215 3.1354 17.9166C3.33057 18.1107 3.59458 18.2196 3.86977 18.2196C4.14497 18.2196 4.40898 18.1107 4.60415 17.9166L5.34373 17.1771C5.51438 16.9778 5.60356 16.7215 5.59343 16.4593C5.5833 16.1971 5.47462 15.9485 5.28911 15.7629C5.10359 15.5774 4.85491 15.4687 4.59274 15.4586C4.33058 15.4485 4.07425 15.5377 3.87498 15.7083ZM10.5 3.20831C10.7762 3.20831 11.0412 3.09857 11.2366 2.90322C11.4319 2.70787 11.5416 2.44291 11.5416 2.16665V1.12498C11.5416 0.848713 11.4319 0.58376 11.2366 0.38841C11.0412 0.19306 10.7762 0.083313 10.5 0.083313C10.2237 0.083313 9.95876 0.19306 9.76341 0.38841C9.56806 0.58376 9.45831 0.848713 9.45831 1.12498V2.16665C9.45831 2.44291 9.56806 2.70787 9.76341 2.90322C9.95876 3.09857 10.2237 3.20831 10.5 3.20831ZM16.3958 5.64581C16.6691 5.64466 16.931 5.53617 17.125 5.34373L17.8646 4.60415C17.9736 4.51076 18.0622 4.39585 18.1247 4.26662C18.1872 4.13738 18.2224 3.99662 18.2279 3.85316C18.2334 3.7097 18.2093 3.56665 18.1569 3.43298C18.1045 3.2993 18.0251 3.1779 17.9236 3.07639C17.8221 2.97487 17.7007 2.89544 17.567 2.84307C17.4333 2.7907 17.2903 2.76652 17.1468 2.77206C17.0033 2.77761 16.8626 2.81274 16.7333 2.87527C16.6041 2.93779 16.4892 3.02635 16.3958 3.1354L15.7083 3.87498C15.5143 4.07015 15.4054 4.33416 15.4054 4.60935C15.4054 4.88455 15.5143 5.14856 15.7083 5.34373C15.892 5.5264 16.1371 5.6341 16.3958 5.64581ZM3.89581 5.34373C4.08983 5.53617 4.35171 5.64466 4.62498 5.64581C4.76207 5.64661 4.89797 5.62033 5.02488 5.56849C5.1518 5.51665 5.26723 5.44027 5.36456 5.34373C5.55857 5.14856 5.66747 4.88455 5.66747 4.60935C5.66747 4.33416 5.55857 4.07015 5.36456 3.87498L4.62498 3.1354C4.43021 2.93787 4.16495 2.8258 3.88755 2.82384C3.61016 2.82189 3.34334 2.93021 3.14581 3.12498C2.94828 3.31975 2.83621 3.58501 2.83426 3.86241C2.83231 4.1398 2.94063 4.40662 3.1354 4.60415L3.89581 5.34373ZM19.875 9.45831H18.8333C18.557 9.45831 18.2921 9.56806 18.0967 9.76341C17.9014 9.95876 17.7916 10.2237 17.7916 10.5C17.7916 10.7762 17.9014 11.0412 18.0967 11.2366C18.2921 11.4319 18.557 11.5416 18.8333 11.5416H19.875C20.1512 11.5416 20.4162 11.4319 20.6116 11.2366C20.8069 11.0412 20.9166 10.7762 20.9166 10.5C20.9166 10.2237 20.8069 9.95876 20.6116 9.76341C20.4162 9.56806 20.1512 9.45831 19.875 9.45831ZM17.125 15.7083C16.9271 15.5982 16.6987 15.5556 16.4744 15.587C16.2501 15.6184 16.0422 15.7219 15.8821 15.8821C15.7219 16.0422 15.6184 16.2501 15.587 16.4744C15.5556 16.6987 15.5982 16.9271 15.7083 17.125L16.4479 17.8646C16.6431 18.0586 16.9071 18.1675 17.1823 18.1675C17.4575 18.1675 17.7215 18.0586 17.9166 17.8646C18.1107 17.6694 18.2196 17.4054 18.2196 17.1302C18.2196 16.855 18.1107 16.591 17.9166 16.3958L17.125 15.7083ZM10.5 4.77081C9.36686 4.77081 8.25918 5.10682 7.31703 5.73635C6.37487 6.36588 5.64055 7.26065 5.20692 8.30752C4.77329 9.35439 4.65984 10.5063 4.8809 11.6177C5.10196 12.729 5.64761 13.7499 6.44885 14.5511C7.25009 15.3524 8.27093 15.898 9.38227 16.1191C10.4936 16.3401 11.6456 16.2267 12.6924 15.793C13.7393 15.3594 14.6341 14.6251 15.2636 13.6829C15.8931 12.7408 16.2291 11.6331 16.2291 10.5C16.2264 8.98136 15.6219 7.52572 14.5481 6.45189C13.4742 5.37806 12.0186 4.77357 10.5 4.77081ZM10.5 14.1458C9.7789 14.1458 9.07402 13.932 8.47446 13.5314C7.87491 13.1308 7.40761 12.5614 7.13167 11.8952C6.85572 11.229 6.78352 10.4959 6.9242 9.78871C7.06488 9.08149 7.41211 8.43187 7.92199 7.92199C8.43187 7.41211 9.08149 7.06488 9.78871 6.9242C10.4959 6.78352 11.229 6.85572 11.8952 7.13167C12.5614 7.40761 13.1308 7.87491 13.5314 8.47446C13.932 9.07402 14.1458 9.7789 14.1458 10.5C14.1458 11.4669 13.7617 12.3942 13.078 13.078C12.3942 13.7617 11.4669 14.1458 10.5 14.1458ZM10.5 17.7916C10.2237 17.7916 9.95876 17.9014 9.76341 18.0967C9.56806 18.2921 9.45831 18.557 9.45831 18.8333V19.875C9.45831 20.1512 9.56806 20.4162 9.76341 20.6116C9.95876 20.8069 10.2237 20.9166 10.5 20.9166C10.7762 20.9166 11.0412 20.8069 11.2366 20.6116C11.4319 20.4162 11.5416 20.1512 11.5416 19.875V18.8333C11.5416 18.557 11.4319 18.2921 11.2366 18.0967C11.0412 17.9014 10.7762 17.7916 10.5 17.7916Z" fill="black"/>
</svg>
